# 3ds Max Wavefront OBJ Exporter v0.97b - (c)2007 guruware
# File Created: 15.04.2018 07:24:31

#
# object Model
#

v  -1.6693 0.3268 -0.6857
v  1.7283 0.3268 2.5563
v  -1.6693 0.3268 2.5563
v  1.7283 0.3268 -0.6857
v  1.7283 0.0000 -0.6857
v  -1.6693 0.3268 -0.6857
v  1.7283 0.3268 -0.6857
v  -1.6693 0.0000 -0.6857
v  -1.6693 0.0000 -0.6857
v  1.7283 0.0000 2.5563
v  1.7283 0.0000 -0.6857
v  -1.6693 0.0000 2.5563
v  -1.6693 0.0000 -0.6857
v  -1.6693 0.3268 2.5563
v  -1.6693 0.3268 -0.6857
v  -1.6693 0.0000 -0.6857
v  -1.8893 0.3268 -0.4658
v  -1.6693 0.3268 -0.6857
v  -1.8893 0.0000 -0.4658
v  -1.6693 0.0000 -2.6957
v  -1.8893 0.0000 -0.4658
v  -2.8942 0.0000 -1.4708
v  -1.6693 0.3268 -2.6957
v  -2.8942 0.0000 -1.4708
v  -1.6693 0.0000 -2.6957
v  -2.8942 0.3268 -1.4708
v  -1.6693 0.3268 -2.6957
v  -1.8893 0.3268 -0.4658
v  -2.8942 0.3268 -1.4708
v  -0.8301 0.3268 -2.6957
v  -1.6693 0.0000 -2.6957
v  -0.8301 0.3268 -2.6957
v  -1.6693 0.3268 -2.6957
v  -0.8301 0.0000 -2.6957
v  -0.8301 0.0000 -2.6957
v  -0.5436 0.0000 -2.4832
v  0.0295 -0.0000 -2.2707
v  0.6025 0.0000 -2.4832
v  0.8891 0.0000 -2.6957
v  1.7283 0.0000 -2.6957
v  1.9482 0.0000 -0.4658
v  1.7283 0.0000 -0.6857
v  1.9482 0.3268 -0.4658
v  1.9482 0.0000 -0.4658
v  1.7283 0.3268 -0.6857
v  1.7283 0.0000 2.5563
v  1.7283 0.3268 -0.6857
v  1.7283 0.0000 -0.6857
v  1.7283 0.3268 2.5563
v  1.7283 0.0000 2.5563
v  1.7283 0.3268 2.5563
v  2.9532 0.3268 -1.4708
v  1.9482 0.3268 -0.4658
v  1.7283 0.3268 -2.6957
v  0.8891 0.3268 -2.6957
v  0.6025 0.3268 -2.4832
v  0.0295 0.3268 -2.2707
v  -0.5436 0.3268 -2.4832
v  -0.8301 0.3661 -2.6957
v  -0.5436 0.3268 -2.4832
v  -0.8301 0.3268 -2.6957
v  -0.5436 0.3661 -2.4832
v  -0.8301 0.3661 -2.6957
v  -0.6076 0.3661 -2.6957
v  -0.5436 0.3661 -2.4832
v  -0.6076 0.3661 -2.7351
v  -0.8301 0.3661 -2.7351
v  -0.8301 0.3661 -2.6957
v  -0.8301 -0.0394 -2.7351
v  -0.8301 0.3661 -2.7351
v  -0.8301 0.3268 -2.6957
v  -0.8301 0.0000 -2.6957
v  -0.8301 -0.0394 -2.6957
v  -0.8301 0.0000 -2.6957
v  -0.5436 -0.0394 -2.4832
v  -0.8301 -0.0394 -2.6957
v  -0.5436 0.0000 -2.4832
v  0.0295 0.0000 -2.2707
v  -0.5436 -0.0394 -2.4832
v  -0.5436 0.0000 -2.4832
v  0.0295 -0.0394 -2.2707
v  0.0295 0.0000 -2.2707
v  0.6025 -0.0394 -2.4832
v  0.0295 -0.0394 -2.2707
v  0.6025 0.0000 -2.4832
v  0.8891 0.0000 -2.6957
v  0.6025 -0.0394 -2.4832
v  0.6025 0.0000 -2.4832
v  0.8891 -0.0394 -2.6957
v  0.8891 0.0000 -2.6957
v  0.8891 0.3661 -2.7351
v  0.8891 -0.0394 -2.6957
v  0.8891 0.3268 -2.6957
v  0.8891 0.3661 -2.6957
v  0.8891 0.3268 -2.6957
v  0.6025 0.3661 -2.4832
v  0.8891 0.3661 -2.6957
v  0.6025 0.3268 -2.4832
v  0.6025 0.3268 -2.4832
v  0.0295 0.3661 -2.2707
v  0.6025 0.3661 -2.4832
v  0.0295 0.3268 -2.2707
v  0.0295 0.3268 -2.2707
v  -0.5436 0.3661 -2.4832
v  0.0295 0.3661 -2.2707
v  -0.5436 0.3268 -2.4832
v  -0.3952 0.3661 -2.5382
v  0.0295 0.3661 -2.2707
v  -0.6076 -0.0394 -2.6957
v  -0.3952 0.3661 -2.5382
v  -0.6076 0.3661 -2.6957
v  -0.3952 -0.0394 -2.5382
v  -0.6076 -0.0394 -2.6957
v  -0.5436 -0.0394 -2.4832
v  -0.3952 -0.0394 -2.5382
v  -0.8301 -0.0394 -2.7351
v  -0.8301 -0.0394 -2.6957
v  -0.6076 -0.0394 -2.7351
v  -0.6076 0.3661 -2.7351
v  -0.8301 -0.0394 -2.7351
v  -0.6076 -0.0394 -2.7351
v  -0.8301 0.3661 -2.7351
v  -0.6076 -0.0394 -2.6957
v  -0.6076 0.3661 -2.7351
v  -0.6076 -0.0394 -2.7351
v  -0.6076 0.3661 -2.6957
v  0.0295 -0.0394 -2.2707
v  0.0295 -0.0394 -2.3807
v  0.6025 -0.0394 -2.4832
v  0.4542 -0.0394 -2.5382
v  0.6665 -0.0394 -2.6957
v  0.8891 -0.0394 -2.6957
v  0.6665 -0.0394 -2.7351
v  0.8891 -0.0394 -2.7351
v  0.8891 -0.0394 -2.7351
v  0.8891 0.3661 -2.7351
v  0.6665 -0.0394 -2.7351
v  0.8891 -0.0394 -2.7351
v  0.6665 0.3661 -2.7351
v  0.8891 0.3661 -2.7351
v  0.6665 0.3661 -2.6957
v  0.6665 0.3661 -2.7351
v  0.8891 0.3661 -2.6957
v  0.6025 0.3661 -2.4832
v  0.4542 0.3661 -2.5382
v  0.0295 0.3661 -2.3807
v  -0.3952 -0.0394 -2.5382
v  0.0295 0.3661 -2.3807
v  -0.3952 0.3661 -2.5382
v  0.0295 -0.0394 -2.3807
v  0.0295 -0.0394 -2.3807
v  0.4542 0.3661 -2.5382
v  0.0295 0.3661 -2.3807
v  0.4542 -0.0394 -2.5382
v  0.4542 -0.0394 -2.5382
v  0.6665 0.3661 -2.6957
v  0.4542 0.3661 -2.5382
v  0.6665 -0.0394 -2.6957
v  0.6665 -0.0394 -2.7351
v  0.6665 0.3661 -2.6957
v  0.6665 -0.0394 -2.6957
v  0.6665 0.3661 -2.7351
v  0.8891 0.0000 -2.6957
v  1.7283 0.3268 -2.6957
v  0.8891 0.3268 -2.6957
v  1.7283 0.0000 -2.6957
v  2.9532 0.0000 -1.4708
v  1.7283 0.3268 -2.6957
v  1.7283 0.0000 -2.6957
v  2.9532 0.3268 -1.4708
v  2.9532 0.0000 -1.4708
v  1.9482 0.3268 -0.4658
v  2.9532 0.3268 -1.4708
v  1.9482 0.0000 -0.4658
v  2.9532 0.0000 -1.4708
v  -1.8893 0.3268 -0.4658
v  -2.8942 0.0000 -1.4708
v  -2.8942 0.3268 -1.4708
v  -1.8893 0.0000 -0.4658
# 179 vertices

vn 0.0000 1.0000 -0.0000
vn 0.0000 0.0000 -1.0000
vn 0.0000 -1.0000 -0.0000
vn -1.0000 0.0000 -0.0000
vn 0.7071 0.0000 0.7071
vn -0.7071 0.0000 -0.7071
vn -0.0000 -1.0000 0.0000
vn -0.7071 0.0000 0.7071
vn 1.0000 0.0000 -0.0000
vn 0.0000 0.0000 1.0000
vn -0.5957 0.0000 0.8032
vn -0.3477 0.0000 0.9376
vn 0.3477 0.0000 0.9376
vn 0.5957 0.0000 0.8032
vn 0.5957 0.0000 -0.8032
vn 0.3477 0.0000 -0.9376
vn -0.3477 0.0000 -0.9376
vn -0.5957 0.0000 -0.8032
vn 0.7071 0.0000 -0.7071
# 19 vertex normals

o Model
g Model
f 2//1 1//1 3//1 
f 1//1 2//1 4//1 
f 5//2 6//2 7//2 
f 6//2 5//2 8//2 
f 10//3 9//3 11//3 
f 9//3 10//3 12//3 
f 14//4 13//4 12//4 
f 13//4 14//4 15//4 
f 17//5 16//5 18//5 
f 16//5 17//5 19//5 
f 21//3 20//3 9//3 
f 20//3 21//3 22//3 
f 24//6 23//6 25//6 
f 23//6 24//6 26//6 
f 28//1 27//1 29//1 
f 27//1 28//1 1//1 
f 27//1 1//1 30//1 
f 32//2 31//2 33//2 
f 31//2 32//2 34//2 
f 9//3 20//3 35//3 
f 9//3 35//3 11//3 
f 11//3 35//3 36//3 
f 11//7 36//7 37//7 
f 11//3 37//3 38//3 
f 11//7 38//7 39//7 
f 11//3 39//3 40//3 
f 11//3 40//3 41//3 
f 43//8 42//8 44//8 
f 42//8 43//8 45//8 
f 47//9 46//9 48//9 
f 46//9 47//9 49//9 
f 14//10 50//10 51//10 
f 50//10 14//10 12//10 
f 52//1 4//1 53//1 
f 54//1 4//1 52//1 
f 55//1 4//1 54//1 
f 56//1 4//1 55//1 
f 57//1 4//1 56//1 
f 58//1 4//1 57//1 
f 4//3 30//3 58//3 
f 30//1 1//1 4//1 
f 60//11 59//11 61//11 
f 59//11 60//11 62//11 
f 64//1 63//1 65//1 
f 66//1 63//1 64//1 
f 63//1 66//1 67//1 
f 69//4 68//4 70//4 
f 71//9 69//9 68//9 
f 69//4 72//4 71//4 
f 72//4 69//4 73//4 
f 75//11 74//11 76//11 
f 74//11 75//11 77//11 
f 79//12 78//12 80//12 
f 78//12 79//12 81//12 
f 83//13 82//13 84//13 
f 82//13 83//13 85//13 
f 87//14 86//14 88//14 
f 86//14 87//14 89//14 
f 90//4 91//4 92//4 
f 91//9 93//9 90//9 
f 93//9 91//9 94//9 
f 96//14 95//14 97//14 
f 95//14 96//14 98//14 
f 100//13 99//13 101//13 
f 99//13 100//13 102//13 
f 104//12 103//12 105//12 
f 103//12 104//12 106//12 
f 107//1 65//1 108//1 
f 64//1 65//1 107//1 
f 110//15 109//15 111//15 
f 109//15 110//15 112//15 
f 114//3 113//3 115//3 
f 114//3 116//3 113//3 
f 116//3 114//3 117//3 
f 116//3 118//3 113//3 
f 120//2 119//2 121//2 
f 119//2 120//2 122//2 
f 124//9 123//9 125//9 
f 123//9 124//9 126//9 
f 114//3 115//3 127//3 
f 127//3 115//3 128//3 
f 127//3 128//3 129//3 
f 129//3 128//3 130//3 
f 129//3 130//3 131//3 
f 129//3 131//3 132//3 
f 132//3 131//3 133//3 
f 132//3 133//3 134//3 
f 91//9 92//9 135//9 
f 137//2 136//2 138//2 
f 136//2 137//2 139//2 
f 141//1 140//1 142//1 
f 141//1 143//1 140//1 
f 141//1 144//1 143//1 
f 145//1 144//1 141//1 
f 145//1 108//1 144//1 
f 146//1 108//1 145//1 
f 107//1 108//1 146//1 
f 148//16 147//16 149//16 
f 147//16 148//16 150//16 
f 152//17 151//17 153//17 
f 151//17 152//17 154//17 
f 156//18 155//18 157//18 
f 155//18 156//18 158//18 
f 160//4 159//4 161//4 
f 159//4 160//4 162//4 
f 164//2 163//2 165//2 
f 163//2 164//2 166//2 
f 168//19 167//19 169//19 
f 167//19 168//19 170//19 
f 172//5 171//5 173//5 
f 171//5 172//5 174//5 
f 41//3 40//3 175//3 
f 177//8 176//8 178//8 
f 176//8 177//8 179//8 
# 114 faces

